<?xml version="1.0" encoding="UTF-8" standalone="no"?>
<!-- Created with Inkscape (http://www.inkscape.org/) -->
<svg
   xmlns:dc="http://purl.org/dc/elements/1.1/"
   xmlns:cc="http://creativecommons.org/ns#"
   xmlns:rdf="http://www.w3.org/1999/02/22-rdf-syntax-ns#"
   xmlns:svg="http://www.w3.org/2000/svg"
   xmlns="http://www.w3.org/2000/svg"
   xmlns:sodipodi="http://sodipodi.sourceforge.net/DTD/sodipodi-0.dtd"
   xmlns:inkscape="http://www.inkscape.org/namespaces/inkscape"
   width="656.80536"
   height="591.75153"
   id="svg2"
   sodipodi:version="0.32"
   inkscape:version="0.46"
   sodipodi:docname="Racing Market Basket-PD.svg"
   inkscape:output_extension="org.inkscape.output.svg.inkscape"
   version="1.0">
  <defs
     id="defs4">
    <inkscape:perspective
       sodipodi:type="inkscape:persp3d"
       inkscape:vp_x="0 : 526.18109 : 1"
       inkscape:vp_y="0 : 1000 : 0"
       inkscape:vp_z="744.09448 : 526.18109 : 1"
       inkscape:persp3d-origin="372.04724 : 350.78739 : 1"
       id="perspective18" />
  </defs>
  <sodipodi:namedview
     id="base"
     pagecolor="#ffffff"
     bordercolor="#666666"
     borderopacity="1.0"
     gridtolerance="10000"
     guidetolerance="10"
     objecttolerance="10"
     inkscape:pageopacity="0.0"
     inkscape:pageshadow="2"
     inkscape:zoom="0.43678885"
     inkscape:cx="514.54046"
     inkscape:cy="434.23646"
     inkscape:document-units="px"
     inkscape:current-layer="layer1"
     showgrid="false"
     inkscape:window-width="1440"
     inkscape:window-height="809"
     inkscape:window-x="0"
     inkscape:window-y="67" />
  <metadata
     id="metadata7">
    <rdf:RDF>
      <cc:Work
         rdf:about="">
        <dc:format>image/svg+xml</dc:format>
        <dc:type
           rdf:resource="http://purl.org/dc/dcmitype/StillImage" />
        <cc:license
           rdf:resource="http://creativecommons.org/licenses/publicdomain/" />
        <dc:title>Market Basket</dc:title>
        <dc:date>27.06.2007</dc:date>
        <dc:creator>
          <cc:Agent>
            <dc:title>Jakub Klawiter</dc:title>
          </cc:Agent>
        </dc:creator>
      </cc:Work>
      <cc:License
         rdf:about="http://creativecommons.org/licenses/publicdomain/">
        <cc:permits
           rdf:resource="http://creativecommons.org/ns#Reproduction" />
        <cc:permits
           rdf:resource="http://creativecommons.org/ns#Distribution" />
        <cc:permits
           rdf:resource="http://creativecommons.org/ns#DerivativeWorks" />
      </cc:License>
    </rdf:RDF>
  </metadata>
  <g
     inkscape:label="Layer 1"
     inkscape:groupmode="layer"
     id="layer1"
     transform="translate(-51.392531,-114.17483)">
    <g
       id="g3257"
       transform="matrix(0.5478027,0,0,0.5478027,165.30317,314.12603)"
       inkscape:export-filename="/home/wariat/Media/Pictures/Moje/Racing Basket.png"
       inkscape:export-xdpi="90"
       inkscape:export-ydpi="90">
      <path
         sodipodi:nodetypes="ccccccccc"
         id="path3176"
         d="M 39.59798,563.04428 C 230.04541,481.01991 559.08576,503.64732 732.56263,616.78441 C 795.73084,538.53125 774.04622,349.96944 701.44993,328.28483 C 751.41881,136.8946 651.48105,-272.28452 893.78297,-285.48385 C 990.89227,-181.77486 1051.232,-411.82026 896.6114,-356.19453 C 577.02865,-325.42489 688.4557,72.38832 613.76869,308.48585 C 346.01092,250.0317 -102.76619,378.25373 -11.313709,449.9072 C 254.55844,378.25371 582.65599,292.45809 701.44993,537.58845 C 569.45667,405.59517 81.081578,429.1654 39.59798,563.04428 z"
         style="opacity:1;fill:#000000;fill-opacity:1;fill-rule:nonzero;stroke:none;stroke-width:30;stroke-linecap:round;stroke-linejoin:round;stroke-miterlimit:4;stroke-dasharray:none;stroke-dashoffset:0;stroke-opacity:1" />
      <g
         style="fill:#000000;fill-opacity:1"
         id="g3249">
        <path
           style="opacity:1;fill:#000000;fill-opacity:1;fill-rule:nonzero;stroke:none;stroke-width:30;stroke-linecap:round;stroke-linejoin:round;stroke-miterlimit:4;stroke-dasharray:none;stroke-dashoffset:0;stroke-opacity:1"
           d="M 59.39697,319.79956 C -152.73507,141.60865 -631.18801,-377.7034 633.56768,-124.2635 C -296.98484,-175.17519 -175.36248,-95.979231 59.39697,319.79956 z"
           id="path3202"
           sodipodi:nodetypes="ccc" />
        <path
           style="opacity:1;fill:#000000;fill-opacity:1;fill-rule:nonzero;stroke:none;stroke-width:30;stroke-linecap:round;stroke-linejoin:round;stroke-miterlimit:4;stroke-dasharray:none;stroke-dashoffset:0;stroke-opacity:1"
           d="M -98.994952,36.956845 C 108.42304,-31.868215 358.26743,-58.266868 585.48441,-13.954843 C 371.46676,-29.039788 123.50799,23.757518 -76.367533,90.69696 C -83.910006,72.783588 -91.452479,54.870217 -98.994952,36.956845 z"
           id="path3204"
           sodipodi:nodetypes="cccc" />
        <path
           style="opacity:1;fill:#000000;fill-opacity:1;fill-rule:nonzero;stroke:none;stroke-width:30;stroke-linecap:round;stroke-linejoin:round;stroke-miterlimit:4;stroke-dasharray:none;stroke-dashoffset:0;stroke-opacity:1"
           d="M -31.112698,167.06449 C -20.741799,186.86348 -10.370899,206.66247 0,226.46146 C 140.47855,135.9518 334.69721,96.353813 534.57273,107.66752 C 386.55171,31.29999 198.93271,59.584265 -31.112698,167.06449 z"
           id="path3206"
           sodipodi:nodetypes="cccc" />
        <path
           style="opacity:1;fill:#000000;fill-opacity:1;fill-rule:nonzero;stroke:none;stroke-width:30;stroke-linecap:round;stroke-linejoin:round;stroke-miterlimit:4;stroke-dasharray:none;stroke-dashoffset:0;stroke-opacity:1"
           d="M -87.681241,-107.29294 C -60.339779,-119.54946 -32.998316,-131.80597 -5.6568542,-144.06249 C 113.13708,-0.75551755 175.36249,148.20831 214.96046,302.82899 C 139.53573,157.6364 55.625733,26.585943 -87.681241,-107.29294 z"
           id="path3208"
           sodipodi:nodetypes="cccc" />
        <path
           style="opacity:1;fill:#000000;fill-opacity:1;fill-rule:nonzero;stroke:none;stroke-width:30;stroke-linecap:round;stroke-linejoin:round;stroke-miterlimit:4;stroke-dasharray:none;stroke-dashoffset:0;stroke-opacity:1"
           d="M 82.024387,-158.20463 C 105.59461,-159.14744 129.16484,-160.09024 152.73506,-161.03305 C 260.21529,-30.925404 305.47013,102.01067 305.47013,237.77517 C 264.92935,105.7819 201.76113,-26.211363 82.024387,-158.20463 z"
           id="path3210"
           sodipodi:nodetypes="cccc" />
        <path
           style="opacity:1;fill:#000000;fill-opacity:1;fill-rule:nonzero;stroke:none;stroke-width:30;stroke-linecap:round;stroke-linejoin:round;stroke-miterlimit:4;stroke-dasharray:none;stroke-dashoffset:0;stroke-opacity:1"
           d="M 280.01429,-155.3762 C 302.64171,-154.43339 325.26912,-153.49058 347.89654,-152.54777 C 391.26575,-40.353493 423.32126,66.183929 418.60721,184.03506 C 403.52227,65.241119 348.83935,-39.410686 280.01429,-155.3762 z"
           id="path3212"
           sodipodi:nodetypes="cccc" />
      </g>
      <path
         id="path3234"
         d="M 102.333,514.64939 C 85.314659,514.89322 69.437589,519.73587 56.707999,529.61814 C 19.676459,558.36656 23.132879,618.87898 64.426749,664.71189 C 105.72065,710.54479 169.30145,724.42905 206.333,695.68064 C 243.36454,666.93222 239.90816,606.38853 198.61425,560.55564 C 171.51513,530.4778 134.82257,514.1839 102.333,514.64939 z M 131.458,572.05564 C 145.68497,571.83605 161.74772,579.55426 173.61425,593.74314 C 191.69656,615.36429 193.23637,643.90014 177.0205,657.46189 C 160.80462,671.02361 132.94658,664.4893 114.86425,642.86814 C 96.781909,621.24697 95.273379,592.67989 111.48925,579.11814 C 117.06346,574.45629 124.00578,572.17066 131.458,572.05564 z"
         style="fill:#000000;fill-opacity:1;fill-rule:nonzero;stroke:#fffdff;stroke-width:9.1273737;stroke-linecap:round;stroke-linejoin:round;stroke-miterlimit:4;stroke-dasharray:none;stroke-dashoffset:0;stroke-opacity:1" />
      <path
         id="path3243"
         d="M 607.2086,514.64939 C 590.19026,514.89322 574.31319,519.73587 561.5836,529.61814 C 524.55206,558.36656 528.00848,618.87898 569.30235,664.71189 C 610.59625,710.54479 674.17705,724.42905 711.2086,695.68064 C 748.24014,666.93222 744.78376,606.38853 703.48985,560.55564 C 676.39073,530.4778 639.69817,514.1839 607.2086,514.64939 z M 636.3336,572.05564 C 650.56057,571.83605 666.62332,579.55426 678.48985,593.74314 C 696.57216,615.36429 698.11197,643.90014 681.8961,657.46189 C 665.68022,671.02361 637.82218,664.4893 619.73985,642.86814 C 601.65751,621.24697 600.14898,592.67989 616.36485,579.11814 C 621.93906,574.45629 628.88138,572.17066 636.3336,572.05564 z"
         style="fill:#000000;fill-opacity:1;fill-rule:nonzero;stroke:#fffdff;stroke-width:9.1273737;stroke-linecap:round;stroke-linejoin:round;stroke-miterlimit:4;stroke-dasharray:none;stroke-dashoffset:0;stroke-opacity:1" />
    </g>
  </g>
</svg>
